<svg class="h-18 w-max" width="45" height="32" viewBox="0 0 45 32" fill="none" xmlns="http://www.w3.org/2000/svg"><rect width="45" height="32" rx="3.2" fill="white"></rect><mask id="mask0_2108_614" maskUnits="userSpaceOnUse" x="0" y="0" width="45" height="32" style="mask-type: luminance;"><rect width="45" height="32" rx="3.2" fill="white"></rect></mask><g mask="url(#mask0_2108_614)"><rect width="45" height="32" fill="#F1361D"></rect><path fill-rule="evenodd" clip-rule="evenodd" d="M16.1881 4.96107L17.7445 5.22524L18.9119 6.28363L19.1772 4.73412L20.2403 3.57198L18.6839 3.30781L17.5166 2.24942L17.2512 3.79893L16.1881 4.96107ZM20.357 10.3807L21.7057 9.56348L23.2842 9.59983L22.4634 8.25709L22.4999 6.68564L21.1511 7.50284L19.5727 7.4665L20.3935 8.80924L20.357 10.3807ZM18.5274 19.1532L17.2081 20.0168L17.1895 18.445L16.3221 17.1316L17.9009 17.1131L19.2201 16.2495L19.2387 17.8213L20.1061 19.1347L18.5274 19.1532ZM19.6731 15.0902L21.2424 14.917L22.6576 15.6141L22.4836 14.0518L23.1838 12.6429L21.6145 12.8161L20.1994 12.119L20.3733 13.6813L19.6731 15.0902Z" fill="#FFDC42"></path><path fill-rule="evenodd" clip-rule="evenodd" d="M10.7142 13.1625L6.9356 15.8442L8.32978 11.4378L4.60028 8.6888L9.24055 8.6472L10.7142 4.26651L12.1879 8.6472L16.8282 8.6888L13.0987 11.4378L14.4928 15.8442L10.7142 13.1625Z" fill="#FFDC42"></path></g></svg>