<svg class="h-18 w-max" width="45" height="32" viewBox="0 0 45 32" fill="none" xmlns="http://www.w3.org/2000/svg"><rect x="0.4" y="0.4" width="44.2" height="31.2" rx="2.8" fill="white" stroke="#F5F5F5" stroke-width="0.8"></rect><mask id="mask0_2108_628" maskUnits="userSpaceOnUse" x="0" y="0" width="45" height="32" style="mask-type: luminance;"><rect x="0.4" y="0.4" width="44.2" height="31.2" rx="2.8" fill="white" stroke="white" stroke-width="0.8"></rect></mask><g mask="url(#mask0_2108_628)"><path fill-rule="evenodd" clip-rule="evenodd" d="M22.5002 23.4666C26.6424 23.4666 30.0002 20.1237 30.0002 16C30.0002 11.8762 26.6424 8.53331 22.5002 8.53331C18.3581 8.53331 15.0002 11.8762 15.0002 16C15.0002 20.1237 18.3581 23.4666 22.5002 23.4666Z" fill="#E01B41"></path><mask id="mask1_2108_628" maskUnits="userSpaceOnUse" x="15" y="8" width="16" height="16" style="mask-type: luminance;"><path fill-rule="evenodd" clip-rule="evenodd" d="M22.5002 23.4666C26.6424 23.4666 30.0002 20.1237 30.0002 16C30.0002 11.8762 26.6424 8.53331 22.5002 8.53331C18.3581 8.53331 15.0002 11.8762 15.0002 16C15.0002 20.1237 18.3581 23.4666 22.5002 23.4666Z" fill="white"></path></mask><g mask="url(#mask1_2108_628)"><path fill-rule="evenodd" clip-rule="evenodd" d="M15.0001 17.0666C17.143 19.0666 20.3573 20.2666 22.5001 17.0666C24.643 13.8666 28.9287 13.8666 30.0001 17.0666C31.0715 20.2666 30.0001 23.4666 30.0001 23.4666H15.0001C15.0001 23.4666 12.8573 15.0666 15.0001 17.0666Z" fill="#0E4B9C"></path></g><path opacity="0.75" fill-rule="evenodd" clip-rule="evenodd" d="M9.92138 5.69009C10.0691 5.43529 10.396 5.34772 10.6513 5.49451L11.5823 6.02962C11.8377 6.1764 11.9249 6.50196 11.7771 6.75676L9.09798 11.3766C8.95021 11.6314 8.6234 11.719 8.36802 11.5722L7.43704 11.0371C7.18167 10.8903 7.09444 10.5647 7.24221 10.3099L9.92138 5.69009ZM33.4177 6.02965C33.1623 6.17644 33.0751 6.50199 33.2228 6.75679L35.902 11.3766C36.0498 11.6314 36.3766 11.719 36.632 11.5722L37.5629 11.0371C37.8183 10.8903 37.9055 10.5648 37.7578 10.31L35.0786 5.69013C34.9308 5.43532 34.604 5.34775 34.3487 5.49454L33.4177 6.02965ZM30.634 7.62965C30.3787 7.77644 30.2914 8.10199 30.4392 8.35679L33.1184 12.9766C33.2661 13.2314 33.593 13.319 33.8483 13.1722L34.7793 12.6371C35.0347 12.4903 35.1219 12.1648 34.9741 11.91L32.295 7.29013C32.1472 7.03532 31.8204 6.94775 31.565 7.09454L30.634 7.62965ZM7.24221 21.6901C7.09444 21.4353 7.18167 21.1097 7.43704 20.963L8.36803 20.4278C8.6234 20.2811 8.95021 20.3686 9.09798 20.6234L11.7771 25.2433C11.9249 25.4981 11.8377 25.8236 11.5823 25.9704L10.6513 26.5055C10.396 26.6523 10.0691 26.5647 9.92138 26.3099L7.24221 21.6901ZM10.2207 19.363C9.96529 19.5097 9.87806 19.8353 10.0258 20.0901L12.705 24.7099C12.8528 24.9647 13.1796 25.0523 13.4349 24.9055L14.3659 24.3704C14.6213 24.2236 14.7085 23.8981 14.5608 23.6433L11.8816 19.0234C11.7338 18.7686 11.407 18.6811 11.1516 18.8278L10.2207 19.363ZM33.1184 19.0234C33.2661 18.7686 33.593 18.681 33.8483 18.8278L34.7793 19.3629C35.0347 19.5097 35.1219 19.8353 34.9741 20.0901L32.295 24.7099C32.1472 24.9647 31.8204 25.0523 31.565 24.9055L30.634 24.3704C30.3787 24.2236 30.2914 23.898 30.4392 23.6432L33.1184 19.0234ZM36.632 20.4278C36.3766 20.281 36.0498 20.3686 35.902 20.6234L33.2228 25.2432C33.0751 25.498 33.1623 25.8236 33.4177 25.9704L34.3486 26.5055C34.604 26.6523 34.9308 26.5647 35.0786 26.3099L37.7578 21.6901C37.9055 21.4353 37.8183 21.1097 37.5629 20.9629L36.632 20.4278ZM13.4349 7.09451C13.1796 6.94772 12.8528 7.03529 12.705 7.29009L10.0258 11.9099C9.87806 12.1647 9.96529 12.4903 10.2207 12.6371L11.1516 13.1722C11.407 13.319 11.7338 13.2314 11.8816 12.9766L14.5608 8.35676C14.7085 8.10196 14.6213 7.7764 14.3659 7.62962L13.4349 7.09451Z" fill="#262626"></path></g></svg>